<svg xmlns="http://www.w3.org/2000/svg" xmlns:xlink="http://www.w3.org/1999/xlink" width="100" zoomAndPan="magnify" viewBox="0 0 75 30.000001" height="40" preserveAspectRatio="xMidYMid meet" version="1.0"><defs><clipPath id="7c5871855d"><path d="M 1.210938 1 L 37 1 L 37 27 L 1.210938 27 Z M 1.210938 1 " clip-rule="nonzero"/></clipPath><clipPath id="8293d96ec6"><path d="M 41 5 L 57.242188 5 L 57.242188 28.550781 L 41 28.550781 Z M 41 5 " clip-rule="nonzero"/></clipPath><clipPath id="13b682dd97"><path d="M 31.113281 0.242188 L 48 0.242188 L 48 24 L 31.113281 24 Z M 31.113281 0.242188 " clip-rule="nonzero"/></clipPath><clipPath id="e90c85262c"><path d="M 50 1 L 73.789062 1 L 73.789062 27 L 50 27 Z M 50 1 " clip-rule="nonzero"/></clipPath></defs><g clip-path="url(#7c5871855d)"><path stroke-linecap="butt" transform="matrix(0.725806, 0, 0, 0.725806, -1.241197, 4.354845)" fill="none" stroke-linejoin="miter" d="M 24.228149 24.429506 L 23.727628 23.99895 L 22.861135 23.0302 L 17.694469 17.906589 L 17.123982 17.529853 L 16.693427 17.034714 L 14.325371 14.768916 L 13.894816 14.203812 L 13.46426 14.031589 L 13.227455 14.602075 L 13.162871 15.269437 L 13.13058 23.697562 L 12.796899 24.730895 L 12.129538 25.064575 L 11.429885 25.096867 L 10.127455 24.999992 L 9.39551 25.064575 L 8.028496 24.999992 L 7.328843 24.763187 L 7.027455 24.138881 L 6.962871 21.329506 L 7.027455 20.7052 L 6.962871 15.237145 L 7.059746 14.666659 L 6.995163 13.299645 L 7.027455 12.734541 L 7.027455 2.638013 L 7.328843 2.002943 L 8.09308 1.669263 L 9.094121 1.900686 L 9.858357 2.304332 L 10.36426 2.702596 L 16.930232 9.338534 L 17.861309 10.070478 L 20.223982 12.438534 L 20.729885 12.664575 L 20.929017 12.104853 L 20.993601 6.136277 L 20.929017 5.404332 L 21.025892 4.005027 L 20.929017 3.466832 L 20.961309 2.767179 L 21.327281 2.067527 L 21.962351 1.701554 L 26.095684 1.669263 L 26.763045 2.035235 L 27.096726 2.702596 L 27.193601 7.33645 L 27.096726 8.132978 L 27.096726 11.437492 L 27.193601 12.002596 L 27.129017 24.171173 L 26.795337 24.838534 L 26.063392 25.064575 L 25.126934 24.9677 Z M 41.288913 25.096867 L 40.621552 25.032284 L 39.959573 25.096867 L 39.189955 25.064575 L 38.560267 24.935409 L 37.193253 25.032284 L 36.590476 24.999992 L 35.858531 25.064575 L 33.458184 25.032284 L 32.457142 24.601728 L 32.188045 23.697562 L 32.123462 22.965617 L 32.220337 20.672909 L 32.123462 20.005548 L 32.188045 19.370478 L 32.220337 13.967006 L 32.123462 13.364228 L 32.155753 10.635582 L 32.220337 10.000513 L 32.123462 9.30086 L 32.188045 6.03402 L 32.09117 5.302075 L 32.188045 3.935061 L 32.123462 2.670304 L 32.489434 1.970652 L 33.189087 1.701554 L 33.856448 1.733846 L 34.523809 1.669263 L 35.126587 1.733846 L 35.756274 1.604679 L 36.423635 1.701554 L 39.157663 1.636971 L 39.825024 1.701554 L 40.390128 1.669263 L 41.05749 1.733846 L 41.789434 1.669263 L 44.49117 1.636971 L 45.088566 1.766138 L 45.788219 1.766138 L 46.45558 2.035235 L 46.756969 2.670304 L 46.821552 4.667006 L 46.78926 5.334367 L 46.821552 6.001728 L 46.487872 6.599124 L 45.788219 7.00277 L 45.158531 7.035061 L 40.390128 6.970478 L 39.755059 7.099645 L 39.125372 7.067353 L 38.388045 7.33645 L 38.092038 7.966138 L 38.092038 9.004853 L 38.355753 10.038186 L 39.055406 10.334193 L 40.992906 10.26961 L 42.392212 10.371867 L 43.091865 10.301902 L 45.056274 10.301902 L 45.82051 10.737839 L 46.154191 11.668916 L 46.057316 14.666659 L 45.82051 15.33402 L 45.158531 15.603117 L 44.388913 15.570825 L 43.721552 15.635409 L 42.354538 15.603117 L 41.089781 15.6677 L 40.024156 15.570825 L 39.023115 15.603117 L 38.425719 15.969089 L 38.12433 16.668742 L 38.12433 18.7677 L 38.388045 19.370478 L 39.087698 19.704159 L 39.825024 19.639575 L 40.454712 19.73645 L 41.192038 19.704159 L 41.859399 19.768742 L 42.957316 19.639575 L 44.65801 19.671867 L 45.29308 19.768742 L 46.057316 19.704159 L 46.756969 20.005548 L 47.122941 20.672909 L 47.122941 24.031242 L 46.756969 24.730895 L 46.057316 25.032284 Z M 41.288913 25.096867 " stroke="#ef224f" stroke-width="0.958332" stroke-opacity="1" stroke-miterlimit="4"/></g><g clip-path="url(#8293d96ec6)"><path fill="#ff2051" d="M 57.320312 28.671875 C 56.566406 27.472656 55.808594 26.269531 55.054688 25.066406 L 53.921875 23.269531 L 52.78125 21.472656 L 50.503906 17.875 L 48.367188 14.507812 L 51.117188 10.46875 L 51.84375 9.402344 C 52.085938 9.050781 52.328125 8.695312 52.570312 8.34375 L 54.035156 6.226562 L 54.628906 5.371094 L 46.820312 5.320312 L 46.652344 5.613281 C 46.414062 6.042969 46.179688 6.476562 45.941406 6.910156 L 45.761719 7.234375 L 45.589844 7.5625 L 45.234375 8.210938 L 44.539062 9.519531 L 44.183594 10.191406 C 44.050781 9.988281 43.914062 9.78125 43.777344 9.578125 L 43.363281 8.957031 L 42.945312 8.335938 L 42.523438 7.71875 L 42.101562 7.105469 C 41.816406 6.695312 41.527344 6.289062 41.234375 5.886719 C 41.214844 5.851562 41.183594 5.84375 41.152344 5.863281 C 41.117188 5.882812 41.109375 5.910156 41.128906 5.945312 C 41.339844 6.398438 41.558594 6.84375 41.785156 7.289062 L 42.121094 7.957031 L 42.460938 8.625 L 42.804688 9.289062 L 43.152344 9.949219 C 43.382812 10.386719 43.617188 10.828125 43.851562 11.265625 L 44.195312 11.898438 L 44.601562 11.261719 C 44.867188 10.84375 45.125 10.425781 45.386719 10.007812 L 46.164062 8.75 L 46.550781 8.117188 L 46.746094 7.804688 L 46.9375 7.488281 C 47.128906 7.167969 47.324219 6.851562 47.515625 6.527344 C 47.667969 6.527344 52.335938 6.511719 52.523438 6.507812 L 51.71875 7.78125 C 51.492188 8.144531 51.257812 8.503906 51.03125 8.867188 L 50.335938 9.949219 L 47.5625 14.285156 L 47.417969 14.507812 L 47.5625 14.71875 L 49.96875 18.230469 L 52.378906 21.738281 L 53.582031 23.492188 L 54.792969 25.242188 C 55.597656 26.410156 56.40625 27.578125 57.21875 28.742188 C 57.242188 28.773438 57.269531 28.777344 57.300781 28.757812 C 57.335938 28.734375 57.339844 28.707031 57.320312 28.675781 Z M 57.320312 28.671875 " fill-opacity="1" fill-rule="nonzero"/></g><g clip-path="url(#13b682dd97)"><path fill="#ff2051" d="M 46.667969 21.714844 L 46.332031 21.046875 L 45.988281 20.378906 L 45.644531 19.71875 L 45.300781 19.054688 C 45.066406 18.617188 44.835938 18.175781 44.597656 17.738281 L 44.257812 17.105469 L 43.851562 17.742188 C 43.585938 18.160156 43.324219 18.578125 43.0625 18.996094 L 42.285156 20.253906 L 41.898438 20.886719 L 41.707031 21.199219 L 41.515625 21.515625 C 41.320312 21.835938 41.128906 22.15625 40.9375 22.476562 C 40.785156 22.476562 36.117188 22.492188 35.929688 22.496094 L 36.730469 21.222656 C 36.960938 20.859375 37.191406 20.5 37.421875 20.136719 L 38.113281 19.054688 L 40.890625 14.71875 L 41.035156 14.496094 L 40.890625 14.285156 L 38.484375 10.78125 L 36.074219 7.28125 L 34.867188 5.53125 L 33.65625 3.785156 C 32.851562 2.617188 32.042969 1.453125 31.230469 0.292969 C 31.210938 0.261719 31.183594 0.257812 31.152344 0.277344 C 31.117188 0.296875 31.113281 0.324219 31.132812 0.359375 C 31.886719 1.558594 32.640625 2.757812 33.394531 3.957031 L 34.53125 5.753906 L 35.667969 7.546875 L 37.945312 11.136719 L 40.085938 14.496094 L 37.332031 18.539062 L 36.609375 19.601562 C 36.367188 19.953125 36.125 20.308594 35.882812 20.660156 L 34.417969 22.777344 L 33.824219 23.632812 L 41.632812 23.683594 L 41.800781 23.390625 C 42.039062 22.957031 42.277344 22.523438 42.511719 22.09375 L 42.691406 21.765625 L 42.867188 21.441406 L 43.21875 20.789062 L 43.910156 19.484375 L 44.265625 18.8125 L 44.671875 19.425781 L 45.085938 20.046875 L 45.507812 20.667969 L 45.925781 21.285156 L 46.351562 21.898438 C 46.636719 22.308594 46.925781 22.714844 47.21875 23.121094 C 47.238281 23.148438 47.265625 23.152344 47.296875 23.136719 C 47.328125 23.117188 47.335938 23.089844 47.320312 23.058594 C 47.109375 22.609375 46.890625 22.160156 46.667969 21.714844 Z M 46.667969 21.714844 " fill-opacity="1" fill-rule="nonzero"/></g><g clip-path="url(#e90c85262c)"><path stroke-linecap="butt" transform="matrix(0.725806, 0, 0, 0.725806, 53.194284, 4.354845)" fill="none" stroke-linejoin="miter" d="M 20.947945 25.064575 L 20.248292 24.999992 L 19.478674 24.666312 L 18.811313 24.171173 L 18.612181 23.568395 L 18.310792 22.933325 L 17.675722 22.405895 L 16.943778 22.029159 L 16.211833 22.136798 L 15.609056 22.072214 L 12.347597 22.104506 L 11.74482 21.996867 L 10.345514 22.136798 L 9.710445 22.029159 L 9.010792 22.405895 L 8.375722 23.0302 L 7.783708 24.138881 L 7.148639 24.730895 L 6.384403 24.9677 L 4.511486 25.032284 L 3.844125 24.9677 L 2.552458 25.032284 L 1.885097 24.838534 L 1.712875 23.99895 L 1.917389 23.331589 L 2.58475 21.996867 L 2.746208 21.404853 L 3.112181 20.931242 L 3.618083 19.59652 L 4.210097 18.530895 L 4.446903 17.863534 L 4.780583 17.368395 L 4.985097 16.63645 L 8.375722 9.499992 L 8.580236 8.902596 L 8.946208 8.267527 L 9.118431 7.600166 L 9.484403 7.099645 L 10.808361 4.037318 L 11.10975 3.569089 L 11.346556 2.901728 L 11.647945 2.336624 L 12.250722 1.766138 L 13.316347 1.400166 L 14.414264 1.733846 L 14.973986 2.336624 L 15.609056 3.499124 L 15.81357 4.101902 L 16.179542 4.704679 L 16.373292 5.366659 L 18.579889 10.000513 L 18.811313 10.705548 L 19.516347 11.932631 L 19.710097 12.470825 L 20.011486 12.965964 L 20.216 13.697909 L 20.544299 14.332978 L 20.877979 14.838881 L 22.142736 17.863534 L 22.810097 19.069089 L 23.278327 20.296173 L 24.177111 22.029159 L 24.677632 23.267006 L 24.909056 24.031242 L 24.812181 24.838534 L 23.875722 24.999992 L 22.842389 25.032284 L 22.212702 24.9677 Z M 13.380931 16.765617 L 14.715653 16.733325 L 15.210792 16.464228 L 15.350722 15.872214 L 13.779195 12.201728 L 13.316347 11.932631 L 12.950375 12.23402 L 11.378847 15.839923 L 11.411139 16.464228 L 11.949333 16.701034 L 12.71357 16.63645 Z M 13.380931 16.765617 " stroke="#ef224f" stroke-width="0.958332" stroke-opacity="1" stroke-miterlimit="4"/></g></svg>